<svg width="28" height="22" viewBox="0 0 28 22" fill="none" xmlns="http://www.w3.org/2000/svg">
<path d="M24.4079 0.624939H3.23466C1.77901 0.624939 0.601246 1.81593 0.601246 3.27159L0.588013 19.1515C0.588013 20.6072 1.77901 21.7982 3.23466 21.7982H24.4079C25.8635 21.7982 27.0545 20.6072 27.0545 19.1515V3.27159C27.0545 1.81593 25.8635 0.624939 24.4079 0.624939ZM23.8786 6.24907L14.5226 12.0982C14.0992 12.3628 13.5434 12.3628 13.1199 12.0982L3.764 6.24907C3.6313 6.17459 3.5151 6.07395 3.42243 5.95325C3.32976 5.83255 3.26254 5.69431 3.22484 5.54688C3.18714 5.39945 3.17975 5.24591 3.20311 5.09554C3.22647 4.94517 3.2801 4.80111 3.36075 4.67207C3.4414 4.54303 3.5474 4.43169 3.67232 4.3448C3.79725 4.25791 3.9385 4.19727 4.08754 4.16655C4.23658 4.13584 4.3903 4.13568 4.5394 4.16609C4.68851 4.1965 4.82989 4.25685 4.95499 4.34349L13.8213 9.88822L22.6876 4.34349C22.8127 4.25685 22.954 4.1965 23.1031 4.16609C23.2522 4.13568 23.406 4.13584 23.555 4.16655C23.704 4.19727 23.8453 4.25791 23.9702 4.3448C24.0951 4.43169 24.2011 4.54303 24.2818 4.67207C24.3624 4.80111 24.4161 4.94517 24.4394 5.09554C24.4628 5.24591 24.4554 5.39945 24.4177 5.54688C24.38 5.69431 24.3128 5.83255 24.2201 5.95325C24.1274 6.07395 24.0112 6.17459 23.8786 6.24907Z" fill="#E4517D"/>
</svg>
