<svg width="24" height="24" viewBox="0 0 24 24" fill="none" xmlns="http://www.w3.org/2000/svg">
<path d="M16.435 23.7115V14.8105H19.4161L19.862 11.3503H16.435V9.14233C16.435 8.14055 16.7136 7.45694 18.1498 7.45694H19.9821V4.36216C19.0951 4.26804 18.2036 4.2224 17.3116 4.22544C14.6704 4.22544 12.8623 5.83799 12.8623 8.79988V11.3503H9.8749V14.8105H12.8623V23.7115H1.86579C1.5269 23.7115 1.20189 23.5769 0.962265 23.3373C0.722635 23.0977 0.588013 22.7727 0.588013 22.4338V1.98933C0.588013 1.65044 0.722635 1.32543 0.962265 1.0858C1.20189 0.84617 1.5269 0.711548 1.86579 0.711548H22.3102C22.6491 0.711548 22.9741 0.84617 23.2138 1.0858C23.4534 1.32543 23.588 1.65044 23.588 1.98933V22.4338C23.588 22.7727 23.4534 23.0977 23.2138 23.3373C22.9741 23.5769 22.6491 23.7115 22.3102 23.7115H16.435Z" fill="#E4517D"/>
</svg>
