<svg width="24" height="24" viewBox="0 0 24 24" fill="none" xmlns="http://www.w3.org/2000/svg">
<path d="M12.088 9.35955C11.5239 9.35955 10.9725 9.52681 10.5035 9.8402C10.0345 10.1536 9.66897 10.599 9.45311 11.1201C9.23725 11.6413 9.18077 12.2147 9.29081 12.7679C9.40086 13.3212 9.67248 13.8294 10.0713 14.2282C10.4702 14.6271 10.9784 14.8987 11.5316 15.0087C12.0848 15.1188 12.6583 15.0623 13.1794 14.8465C13.7006 14.6306 14.146 14.265 14.4594 13.796C14.7727 13.327 14.94 12.7756 14.94 12.2115C14.94 11.837 14.8662 11.4662 14.7229 11.1201C14.5796 10.7741 14.3695 10.4597 14.1047 10.1949C13.8398 9.93005 13.5254 9.71997 13.1794 9.57664C12.8334 9.43332 12.4625 9.35955 12.088 9.35955ZM23.5075 6.54205C23.5015 5.65397 23.3379 4.774 23.0245 3.94305C22.7937 3.335 22.4365 2.78281 21.9766 2.32291C21.5168 1.86302 20.9646 1.50587 20.3565 1.27505C19.5256 0.961631 18.6456 0.798098 17.7575 0.792048C16.274 0.711548 15.837 0.711548 12.088 0.711548C8.33901 0.711548 7.90201 0.711548 6.41851 0.792048C5.53043 0.798098 4.65047 0.961631 3.81951 1.27505C3.21146 1.50587 2.65927 1.86302 2.19938 2.32291C1.73948 2.78281 1.38234 3.335 1.15151 3.94305C0.838096 4.774 0.674563 5.65397 0.668513 6.54205C0.588013 8.02555 0.588013 8.46255 0.588013 12.2115C0.588013 15.9605 0.588013 16.3975 0.668513 17.881C0.680891 18.7723 0.844203 19.6549 1.15151 20.4915C1.38131 21.0968 1.73816 21.6458 2.19801 22.1015C2.65594 22.5642 3.20931 22.9213 3.81951 23.148C4.65047 23.4615 5.53043 23.625 6.41851 23.631C7.90201 23.7115 8.33901 23.7115 12.088 23.7115C15.837 23.7115 16.274 23.7115 17.7575 23.631C18.6456 23.625 19.5256 23.4615 20.3565 23.148C20.9667 22.9213 21.5201 22.5642 21.978 22.1015C22.4379 21.6458 22.7947 21.0968 23.0245 20.4915C23.3376 19.6565 23.5011 18.7728 23.5075 17.881C23.588 16.3975 23.588 15.9605 23.588 12.2115C23.588 8.46255 23.588 8.02555 23.5075 6.54205ZM20.5865 15.742C20.5496 16.4517 20.3982 17.1507 20.138 17.812C19.9148 18.3637 19.5829 18.8648 19.1621 19.2856C18.7413 19.7064 18.2402 20.0383 17.6885 20.2615C17.021 20.5072 16.318 20.6431 15.607 20.664H8.56901C7.858 20.6431 7.15507 20.5072 6.48751 20.2615C5.91723 20.0496 5.40223 19.7115 4.98101 19.2725C4.56433 18.86 4.24253 18.3616 4.03801 17.812C3.7914 17.1452 3.65921 16.4414 3.64701 15.7305V8.69255C3.65921 7.98165 3.7914 7.27792 4.03801 6.61105C4.24994 6.04077 4.58803 5.52577 5.02701 5.10455C5.4414 4.69011 5.93927 4.36866 6.48751 4.16155C7.15507 3.91591 7.858 3.77999 8.56901 3.75905H15.607C16.318 3.77999 17.021 3.91591 17.6885 4.16155C18.2588 4.37347 18.7738 4.71156 19.195 5.15055C19.6117 5.56311 19.9335 6.0615 20.138 6.61105C20.3836 7.27861 20.5196 7.98154 20.5405 8.69255V12.2115C20.5405 14.5805 20.621 14.822 20.5865 15.7305V15.742ZM18.7465 7.18605C18.6096 6.81458 18.3937 6.47724 18.1138 6.19729C17.8338 5.91735 17.4965 5.70147 17.125 5.56455C16.615 5.38775 16.0778 5.30211 15.538 5.31155H8.63801C8.09552 5.31685 7.55824 5.41808 7.05101 5.61055C6.68523 5.74125 6.35146 5.94832 6.07188 6.21798C5.79231 6.48764 5.57333 6.81372 5.42951 7.17455C5.26251 7.68672 5.18092 8.22288 5.18801 8.76155V15.6615C5.19941 16.2034 5.30045 16.7397 5.48701 17.2485C5.62394 17.62 5.83981 17.9574 6.11976 18.2373C6.3997 18.5172 6.73704 18.7331 7.10851 18.87C7.59918 19.0505 8.11551 19.1514 8.63801 19.169H15.538C16.0805 19.1637 16.6178 19.0625 17.125 18.87C17.4965 18.7331 17.8338 18.5172 18.1138 18.2373C18.3937 17.9574 18.6096 17.62 18.7465 17.2485C18.939 16.7413 19.0402 16.204 19.0455 15.6615V8.76155C19.0458 8.21852 18.9444 7.68023 18.7465 7.17455V7.18605ZM12.088 16.6045C11.5117 16.6045 10.941 16.4908 10.4086 16.2699C9.87629 16.049 9.39276 15.7253 8.98575 15.3172C8.57874 14.9091 8.25624 14.4247 8.03673 13.8918C7.81721 13.3589 7.705 12.7879 7.70651 12.2115C7.70651 11.3422 7.96445 10.4924 8.44767 9.76974C8.93089 9.04706 9.61767 8.48401 10.4211 8.15186C11.2244 7.8197 12.1083 7.73338 12.9608 7.90382C13.8133 8.07426 14.596 8.49379 15.2099 9.10932C15.8238 9.72484 16.2413 10.5087 16.4095 11.3616C16.5777 12.2145 16.4891 13.0981 16.1548 13.9007C15.8205 14.7032 15.2557 15.3885 14.5318 15.8698C13.8078 16.3511 12.9574 16.6068 12.088 16.6045ZM16.688 8.68105C16.4338 8.65414 16.1985 8.5341 16.0275 8.34406C15.8566 8.15403 15.762 7.90743 15.762 7.6518C15.762 7.39616 15.8566 7.14957 16.0275 6.95953C16.1985 6.76949 16.4338 6.64946 16.688 6.62255C16.9422 6.64946 17.1775 6.76949 17.3485 6.95953C17.5195 7.14957 17.6141 7.39616 17.6141 7.6518C17.6141 7.90743 17.5195 8.15403 17.3485 8.34406C17.1775 8.5341 16.9422 8.65414 16.688 8.68105Z" fill="#E4517D"/>
</svg>
