<svg width="24" height="24" viewBox="0 0 24 24" fill="none" xmlns="http://www.w3.org/2000/svg">
<path d="M21.0325 0.711548C21.7102 0.711548 22.3602 0.980793 22.8395 1.46005C23.3188 1.93931 23.588 2.58933 23.588 3.2671V21.156C23.588 21.8338 23.3188 22.4838 22.8395 22.963C22.3602 23.4423 21.7102 23.7115 21.0325 23.7115H3.14357C2.46579 23.7115 1.81578 23.4423 1.33652 22.963C0.857258 22.4838 0.588013 21.8338 0.588013 21.156V3.2671C0.588013 2.58933 0.857258 1.93931 1.33652 1.46005C1.81578 0.980793 2.46579 0.711548 3.14357 0.711548H21.0325ZM20.3936 20.5171V13.7449C20.3936 12.6401 19.9547 11.5806 19.1735 10.7994C18.3923 10.0182 17.3328 9.57932 16.228 9.57932C15.1419 9.57932 13.8769 10.2438 13.2636 11.2404V9.8221H9.69857V20.5171H13.2636V14.2177C13.2636 13.2338 14.0558 12.4288 15.0397 12.4288C15.5141 12.4288 15.9691 12.6172 16.3046 12.9527C16.6401 13.2882 16.8286 13.7432 16.8286 14.2177V20.5171H20.3936ZM5.54579 7.81599C6.11512 7.81599 6.66114 7.58983 7.06371 7.18725C7.46629 6.78467 7.69246 6.23866 7.69246 5.66933C7.69246 4.48099 6.73412 3.50988 5.54579 3.50988C4.97307 3.50988 4.42381 3.73739 4.01883 4.14237C3.61386 4.54734 3.38635 5.09661 3.38635 5.66933C3.38635 6.85766 4.35746 7.81599 5.54579 7.81599ZM7.3219 20.5171V9.8221H3.78246V20.5171H7.3219Z" fill="#E4517D"/>
</svg>
