<svg width="140" height="131" viewBox="0 0 140 131" fill="none" xmlns="http://www.w3.org/2000/svg">
<path d="M139.419 73.0474L132.099 50.3505C132.061 50.1417 132.001 49.9372 131.922 49.7401L117.242 4.11969C116.858 2.9469 116.111 1.92628 115.11 1.20447C114.109 0.48266 112.904 0.0968217 111.67 0.102394C110.439 0.0987122 109.239 0.490477 108.247 1.21999C107.256 1.9495 106.525 2.9782 106.161 4.15457L92.1678 47.6268H47.9834L33.9781 4.15166C33.6168 2.97933 32.8896 1.95346 31.9031 1.22429C30.9166 0.495119 29.7225 0.100944 28.4957 0.0994873H28.4638C27.2262 0.103699 26.0218 0.499774 25.0233 1.23089C24.0248 1.96201 23.2835 2.9906 22.9058 4.16911L8.2116 49.8302C8.2116 49.8709 8.17963 49.9058 8.16509 49.9465L0.714787 73.0503C0.166104 74.7426 0.163957 76.5646 0.708649 78.2581C1.25334 79.9517 2.31724 81.4309 3.74956 82.486L68.1193 129.696C68.6843 130.11 69.3672 130.331 70.0673 130.327C70.7675 130.324 71.4479 130.095 72.0087 129.676L136.39 82.486C137.823 81.4305 138.886 79.9505 139.43 78.2562C139.974 76.5619 139.97 74.7394 139.419 73.0474ZM43.2016 54.2952L61.1457 110.037L18.0746 54.2952M79.0142 110.049L96.22 56.609L96.9612 54.2835H122.111L83.142 104.686M111.725 8.43058L124.332 47.6239H99.0949M90.0283 54.269L77.5288 93.099L70.0698 116.226L50.1403 54.269M28.4347 8.43058L41.0679 47.6239H15.8567M7.62441 77.1112C7.3202 76.8867 7.09441 76.5722 6.97909 76.2121C6.86378 75.8521 6.86479 75.4649 6.982 75.1054L12.505 57.9549L53.0878 110.45M132.521 77.1112L87.0517 110.436L87.2029 110.235L127.626 57.9433L133.149 75.0938C133.268 75.4535 133.27 75.8414 133.156 76.2025C133.041 76.5636 132.816 76.8795 132.512 77.1054" fill="#E9D3DA"/>
</svg>
