<svg width="188" height="121" viewBox="0 0 188 121" fill="none" xmlns="http://www.w3.org/2000/svg">
<path d="M9.36493 60.5309V97.29C9.36493 98.5086 8.88083 99.6774 8.01913 100.539C7.15742 101.401 5.98869 101.885 4.77005 101.885C3.55141 101.885 2.38269 101.401 1.52098 100.539C0.659273 99.6774 0.175171 98.5086 0.175171 97.29V60.5309C0.175171 59.3123 0.659273 58.1436 1.52098 57.2819C2.38269 56.4202 3.55141 55.9361 4.77005 55.9361C5.98869 55.9361 7.15742 56.4202 8.01913 57.2819C8.88083 58.1436 9.36493 59.3123 9.36493 60.5309ZM29.2761 37.5565C28.0575 37.5565 26.8887 38.0406 26.027 38.9024C25.1653 39.7641 24.6812 40.9328 24.6812 42.1514V115.67C24.6812 116.888 25.1653 118.057 26.027 118.919C26.8887 119.78 28.0575 120.264 29.2761 120.264C30.4947 120.264 31.6635 119.78 32.5252 118.919C33.3869 118.057 33.871 116.888 33.871 115.67V42.1514C33.871 40.9328 33.3869 39.7641 32.5252 38.9024C31.6635 38.0406 30.4947 37.5565 29.2761 37.5565ZM53.7821 31.43C52.5635 31.43 51.3948 31.9141 50.5331 32.7758C49.6713 33.6375 49.1872 34.8063 49.1872 36.0249V115.67C49.1872 116.888 49.6713 118.057 50.5331 118.919C51.3948 119.78 52.5635 120.264 53.7821 120.264C55.0008 120.264 56.1695 119.78 57.0312 118.919C57.8929 118.057 58.377 116.888 58.377 115.67V36.0249C58.377 34.8063 57.8929 33.6375 57.0312 32.7758C56.1695 31.9141 55.0008 31.43 53.7821 31.43ZM78.2882 6.92399C77.0695 6.92399 75.9008 7.4081 75.0391 8.2698C74.1774 9.13151 73.6933 10.3002 73.6933 11.5189V115.67C73.6933 116.888 74.1774 118.057 75.0391 118.919C75.9008 119.78 77.0695 120.264 78.2882 120.264C79.5068 120.264 80.6755 119.78 81.5372 118.919C82.3989 118.057 82.883 116.888 82.883 115.67V11.5189C82.883 10.3002 82.3989 9.13151 81.5372 8.2698C80.6755 7.4081 79.5068 6.92399 78.2882 6.92399ZM161.808 51.2493C159.596 37.1876 152.435 24.3779 141.616 15.1281C130.796 5.87817 117.029 0.796138 102.794 0.797486C101.576 0.797486 100.407 1.28159 99.5451 2.14329C98.6834 3.005 98.1993 4.17373 98.1993 5.39237C98.1993 6.61101 98.6834 7.77973 99.5451 8.64144C100.407 9.50315 101.576 9.98725 102.794 9.98725C115.328 9.94261 127.428 14.5743 136.729 22.9769C146.029 31.3795 151.861 42.9488 153.085 55.423C153.184 56.4062 153.597 57.3313 154.264 58.0611C154.93 58.7909 155.814 59.2864 156.784 59.4741C163.144 60.7055 168.816 64.2631 172.693 69.4523C176.57 74.6415 178.374 81.0895 177.752 87.5372C177.13 93.9849 174.127 99.9692 169.329 104.322C164.532 108.674 158.284 111.082 151.806 111.075H102.794C101.576 111.075 100.407 111.559 99.5451 112.42C98.6834 113.282 98.1993 114.451 98.1993 115.67C98.1993 116.888 98.6834 118.057 99.5451 118.919C100.407 119.78 101.576 120.264 102.794 120.264H151.806C160.28 120.272 168.472 117.226 174.881 111.684C181.291 106.142 185.488 98.475 186.703 90.0893C187.918 81.7036 186.07 73.1608 181.498 66.0272C176.925 58.8935 169.935 53.6469 161.808 51.2493Z" fill="#E9D3DA"/>
</svg>
